<svg xmlns="http://www.w3.org/2000/svg" width="106" height="18" fill="none"><path fill="#F3CD03" d="M18.227 6.461a.9.9 0 0 0-.304-.42.923.923 0 0 0-.489-.188l-5.21-.407L9.97.532a.902.902 0 0 0-.336-.387.922.922 0 0 0-1.329.386L6.051 5.446l-5.21.407a.922.922 0 0 0-.481.182.887.887 0 0 0-.084 1.36l3.85 3.695-1.362 5.806a.887.887 0 0 0 .371.943.924.924 0 0 0 1.027.008l4.976-3.267 4.975 3.267a.926.926 0 0 0 1.045-.023.888.888 0 0 0 .341-.973l-1.67-5.758 4.144-3.673a.892.892 0 0 0 .254-.959ZM40.159 6.461a.9.9 0 0 0-.304-.42.923.923 0 0 0-.49-.188l-5.209-.407L31.902.532a.902.902 0 0 0-.337-.387.922.922 0 0 0-1.328.386l-2.254 4.915-5.21.407a.923.923 0 0 0-.482.182.886.886 0 0 0-.084 1.36l3.85 3.695-1.361 5.806a.886.886 0 0 0 .038.527.902.902 0 0 0 .332.416.924.924 0 0 0 1.028.008l4.975-3.267 4.976 3.267a.926.926 0 0 0 1.045-.023.888.888 0 0 0 .341-.973l-1.671-5.758 4.145-3.673a.892.892 0 0 0 .254-.959ZM62.087 6.461a.901.901 0 0 0-.304-.42.923.923 0 0 0-.49-.188l-5.209-.407L53.83.532a.902.902 0 0 0-.337-.387.922.922 0 0 0-1.328.386L49.91 5.446l-5.209.407a.922.922 0 0 0-.482.182.9.9 0 0 0-.336.917c.039.168.127.322.252.443l3.85 3.695-1.361 5.806a.887.887 0 0 0 .37.943.924.924 0 0 0 1.028.008l4.975-3.267 4.976 3.267a.926.926 0 0 0 1.045-.023.888.888 0 0 0 .341-.973l-1.671-5.758 4.145-3.673a.892.892 0 0 0 .254-.959ZM84.02 6.461a.9.9 0 0 0-.304-.42.923.923 0 0 0-.49-.188l-5.209-.407L75.763.532a.902.902 0 0 0-.336-.387.922.922 0 0 0-1.329.386l-2.254 4.915-5.21.407a.922.922 0 0 0-.482.182.886.886 0 0 0-.084 1.36l3.85 3.695-1.361 5.806a.886.886 0 0 0 .37.943.924.924 0 0 0 1.028.008l4.976-3.267 4.975 3.267a.926.926 0 0 0 1.045-.023.887.887 0 0 0 .341-.973l-1.67-5.758 4.144-3.673a.892.892 0 0 0 .254-.959ZM91.851 11.09l-1.361 5.806a.885.885 0 0 0 .369.945.922.922 0 0 0 1.028.006l4.975-3.267 4.976 3.267a.922.922 0 0 0 1.37-.456.886.886 0 0 0 .016-.54l-1.671-5.758 4.145-3.673a.9.9 0 0 0 .254-.958.904.904 0 0 0-.793-.608l-5.21-.408L97.695.532a.902.902 0 0 0-.337-.387.923.923 0 0 0-1.328.387l-2.255 4.914-5.209.407a.922.922 0 0 0-.482.182.9.9 0 0 0-.337.917c.04.168.128.322.253.443l3.851 3.695Zm2.607-3.892a.921.921 0 0 0 .454-.162.9.9 0 0 0 .306-.366l1.644-3.582 1.644 3.582a.902.902 0 0 0 .307.366c.134.093.29.149.453.162l3.63.283-2.989 2.649a.893.893 0 0 0-.268.916l1.145 3.946-3.414-2.242a.92.92 0 0 0-1.013 0l-3.567 2.342.959-4.09a.887.887 0 0 0-.252-.846L90.72 7.491l3.737-.293Z"/></svg>