<svg xmlns="http://www.w3.org/2000/svg" aria-hidden="true" style="position:absolute;width:0;height:0;overflow:hidden">
  <defs>
    <symbol id="icon-play" viewBox="0 0 28 32">
      <path d="M26.088 12.891c2.441 1.354 2.441 4.864 0 6.218L4.933 30.848c-2.37 1.315-5.281-.399-5.281-3.109V4.262c0-2.71 2.911-4.424 5.281-3.109l21.155 11.739z"/>
    </symbol>
    <symbol id="icon-wave" viewBox="0 0 41 32">
      <path d="M21.673 12.898l2.674 1.246 3.977-1.184v-2.777c0-4.713-3.977-8.489-8.731-8.489-4.736 0-8.736 3.755-8.736 8.432v12.651c0 1.166-0.937 2.082-2.080 2.082s-2.082-0.919-2.082-2.080v-5.349h-6.695v5.426c0 4.835 3.919 8.754 8.754 8.754v0c4.798 0 8.754-3.856 8.754-8.631v-12.491c0-1.143 0.939-2.080 2.082-2.080s2.082 0.937 2.082 2.080v2.409zM32.489 17.429v5.611c0 1.143-0.937 2.062-2.080 2.062s-2.082-0.919-2.082-2.062v-5.509l-3.979 1.184-2.674-1.246v5.47c0 4.795 3.938 8.672 8.754 8.672 4.835 0 8.754-3.919 8.754-8.754v0-5.429h-6.693z"></path>
    </symbol>
    <symbol id="icon-cursor" viewBox="0 0 21 32">
      <path d="M19.042 18.067l-17.21-17.21c-0.184-0.197-0.445-0.32-0.735-0.32-0.008 0-0.015 0-0.023 0l0.001-0c-0.146 0.002-0.284 0.033-0.41 0.087l0.007-0.003c-0.395 0.164-0.669 0.546-0.672 0.992v25.278c0 0.437 0.269 0.823 0.672 0.992 0.119 0.051 0.257 0.081 0.402 0.083h0.001c0.296-0.002 0.564-0.124 0.757-0.32l5.244-5.242 3.209 7.597c0.17 0.388 0.55 0.655 0.993 0.655 0.151 0 0.295-0.031 0.426-0.087l-0.007 0.003 2.974-1.261c0.389-0.169 0.656-0.55 0.656-0.994 0-0.151-0.031-0.295-0.087-0.425l0.003 0.007-3.377-8h6.419c0.446-0.003 0.828-0.277 0.989-0.665l0.003-0.007c0.054-0.121 0.085-0.262 0.085-0.411 0-0.294-0.123-0.56-0.32-0.748l-0-0z"></path>
    </symbol>
    <symbol id="icon-heart" viewBox="0 0 34 32">
      <path d="M17.067 30.172c0.002 0 0.005 0 0.008 0 0.324 0 0.617-0.13 0.831-0.341l-0 0 11.866-11.43c0.171-0.171 4.363-4 4.363-8.572 0-5.581-3.409-8.911-9.105-8.911-3.332-0.002-6.458 2.624-7.962 4.111-1.504-1.485-4.629-4.111-7.962-4.111-5.696-0.002-9.105 3.328-9.105 8.911 0 4.572 4.19 8.401 4.343 8.533l11.885 11.467c0.228 0.228 0.533 0.341 0.838 0.341z"></path>
    </symbol>
    <symbol id="icon-sandwatch" viewBox="0 0 26 32">
      <path d="M23.663 2.69h1.615c0.301 0 0.536-0.235 0.536-0.538v-1.079c0-0.002 0-0.004 0-0.006 0-0.293-0.238-0.531-0.531-0.531-0.002 0-0.004 0-0.006 0h-24.739c-0.002-0-0.005-0-0.008-0-0.293 0-0.531 0.238-0.531 0.531 0 0.002 0 0.004 0 0.006v-0 1.077c0 0.301 0.235 0.538 0.538 0.538h1.613c0 6.217 2.974 10.722 6.268 12.907-3.294 2.184-6.268 6.688-6.268 12.907h-1.613c-0.002-0-0.005-0-0.008-0-0.293 0-0.531 0.238-0.531 0.531 0 0.003 0 0.005 0 0.008v-0 1.077c0 0.301 0.235 0.538 0.538 0.538h24.74c0.301 0 0.536-0.235 0.536-0.538v-1.075c0-0.002 0-0.005 0-0.008 0-0.293-0.238-0.531-0.531-0.531-0.002 0-0.004 0-0.006 0h-1.615c0-6.219-2.974-10.724-6.268-12.907 3.294-2.185 6.268-6.69 6.268-12.907zM21.513 2.69c0 0.024 0 0.053 0 0.082 0 2.315-0.528 4.506-1.47 6.46l0.039-0.089h-14.349c-0.903-1.865-1.431-4.056-1.431-6.371 0-0.029 0-0.058 0-0.086l-0 0.004h17.212zM20.553 23.127h-15.29c1.242-3.243 3.479-5.547 5.713-6.455h3.866c2.234 0.907 4.471 3.211 5.715 6.455z"></path>
    </symbol>
    <symbol id="icon-tick" viewBox="0 0 45 32">
      <path d="M42.171 0.64c-0.383-0.395-0.919-0.64-1.512-0.64s-1.129 0.245-1.511 0.639l-0.001 0-25.605 26.101-9.843-10.035c-0.383-0.395-0.919-0.64-1.512-0.64s-1.129 0.245-1.512 0.639l-0 0c-0.388 0.397-0.627 0.941-0.627 1.541s0.239 1.144 0.627 1.542l-0-0 11.355 11.573c0.384 0.394 0.919 0.639 1.512 0.639s1.128-0.244 1.512-0.638l0-0 27.117-27.643c0.388-0.397 0.627-0.941 0.627-1.541s-0.239-1.144-0.627-1.542l0 0z"></path>
    </symbol>
    <symbol id="icon-facebook" viewBox="0 0 32 32">
      <path stroke-linejoin="round" stroke-linecap="round" stroke-miterlimit="4" stroke-width="2.6667" d="M24 2.667h-4c-3.682 0-6.667 2.985-6.667 6.667v0 4h-4v5.333h4v10.667h5.333v-10.667h4l1.333-5.333h-5.333v-4c0-0.736 0.597-1.333 1.333-1.333v0h4v-5.333z"></path>
    </symbol>
    <symbol id="icon-instagram" viewBox="0 0 32 32">
      <path stroke-linejoin="round" stroke-linecap="round" stroke-miterlimit="4" stroke-width="2.6667" d="M22.667 2.667h-13.333c-3.682 0-6.667 2.985-6.667 6.667v0 13.333c0 3.682 2.985 6.667 6.667 6.667v0h13.333c3.682 0 6.667-2.985 6.667-6.667v0-13.333c0-3.682-2.985-6.667-6.667-6.667v0z"></path>
      <path stroke-linejoin="round" stroke-linecap="round" stroke-miterlimit="4" stroke-width="2.6667" d="M21.333 15.16c0.043 0.253 0.067 0.545 0.067 0.843 0 2.946-2.388 5.333-5.333 5.333-2.691 0-4.917-1.993-5.281-4.584l-0.003-0.028c-0.031-0.217-0.049-0.467-0.049-0.721 0-2.946 2.388-5.333 5.333-5.333 2.648 0 4.845 1.93 5.262 4.46l0.004 0.031zM23.333 8.667h0.013"></path>
    </symbol>
    <symbol id="icon-twitter" viewBox="0 0 32 32">
      <path stroke-linejoin="round" stroke-linecap="round" stroke-miterlimit="4" stroke-width="2.6667" d="M30.667 4.013c-1.2 0.856-2.591 1.552-4.084 2.013l-0.103 0.027c-1.101-1.261-2.712-2.053-4.507-2.053-3.299 0-5.973 2.674-5.973 5.973 0 0.028 0 0.056 0.001 0.084l-0-0.004v1.333c-0.11 0.003-0.239 0.005-0.368 0.005-4.79 0-9.027-2.37-11.602-6.001l-0.030-0.044s-5.333 12 6.667 17.333c-2.442 1.677-5.462 2.679-8.716 2.679-0.217 0-0.433-0.004-0.648-0.013l0.031 0.001c12 6.667 26.667 0 26.667-15.333 0-0.371-0.037-0.741-0.107-1.107 1.323-1.305 2.293-2.963 2.758-4.822l0.015-0.071z"></path>
    </symbol>
    <symbol id="icon-mobile" viewBox="0 0 21 32">
      <path d="M16.935 2.286h-13.298c-1.377 0-2.494 1.152-2.494 2.571v22.286c0 1.419 1.117 2.571 2.494 2.571h13.298c1.377 0 2.494-1.152 2.494-2.571v-22.286c0-1.419-1.117-2.571-2.494-2.571zM12.779 26.238c0 0.52-0.375 0.905-0.832 0.905h-3.371c-0.41 0-0.784-0.385-0.784-0.857s0.374-0.857 0.831-0.857h3.326c0.457 0 0.831 0.385 0.831 0.809zM16.103 22.857h-11.635v-17.143h11.637v17.143z"></path>
    </symbol>
  </defs>
</svg>
